<svg xmlns="http://www.w3.org/2000/svg" xmlns:xlink="http://www.w3.org/1999/xlink" width="19" height="20"><rect id="backgroundrect" width="100%" height="100%" x="0" y="0" fill="none" stroke="none"/><defs><filter id="a" x="0" y="0" width="37.470001220703125" height="38" filterUnits="userSpaceOnUse"><feOffset dy="3" input="SourceAlpha"/><feGaussianBlur stdDeviation="3" result="b"/><feFlood flood-opacity="0.161"/><feComposite operator="in" in2="b"/><feComposite in="SourceGraphic"/></filter></defs><g class="currentLayer" style=""><title>Layer 1</title><g filter="url(#a)" id="svg_1" class=""><path d="M19.319999790191652,9.101586437225341 H10.14999979019165 v2.73 h6.51 c-0.3300000000000001,3.81 -3.5,5.44 -6.5,5.44 A7.17,7.17 0 0 1 2.9699997901916504,10.001586437225342 a7.167,7.167 0 0 1 7.2,-7.27 A7.028,7.028 0 0 1 15.069999790191652,4.701586437225341 L16.96999979019165,2.7215864372253407 A9.669,9.669 0 0 0 10.069999790191652,0.0015864372253417969 A10.168,10.168 0 0 0 -2.0980835024886346e-7,10.001586437225342 A10.125,10.125 0 0 0 10.21999979019165,20.001586437225342 c5.35,0 9.25,-3.67 9.25,-9.09 a9.012,9.012 0 0 0 -0.15000000000000005,-1.81 z" fill="#fff" id="svg_2"/></g></g></svg>