<svg xmlns="http://www.w3.org/2000/svg" xmlns:xlink="http://www.w3.org/1999/xlink" width="31" height="31"><rect id="backgroundrect" width="100%" height="100%" x="0" y="0" fill="none" stroke="none"/><defs><style>.a{fill:#fff;}.b{filter:url(#a);}</style><filter id="a" x="0" y="0" width="48.9109992980957" height="48.9109992980957" filterUnits="userSpaceOnUse"><feOffset dy="3" input="SourceAlpha"/><feGaussianBlur stdDeviation="3" result="b"/><feFlood flood-opacity="0.161"/><feComposite operator="in" in2="b"/><feComposite in="SourceGraphic"/></filter></defs><g class="currentLayer" style=""><title>Layer 1</title><g class="b" id="svg_1"><path fill="#fff" class="a" d="M2.9440028610229483,0.0000019073486328125 A2.944,2.944 0 0 0 0.00000286102294921875,2.944001907348632 V23.552001907348632 A2.944,2.944 0 0 0 2.9440028610229483,26.500001907348633 h13.38 a8.171,8.171 0 0 1 -0.132,-1.472 a8.729,8.729 0 0 1 0.515,-2.944 H2.9440028610229483 L8.10000286102295,15.456001907348632 l3.68,4.416 l5.152,-6.6240000000000006 l3.282,4.372 a8.856,8.856 0 0 1 4.813,-1.428 a8.171,8.171 0 0 1 1.472,0.132 V2.944001907348632 A2.943,2.943 0 0 0 23.55200286102295,0.0000019073486328125 H2.9440028610229483 M23.55200286102295,19.136001907348632 v4.416 H19.13600286102295 V26.500001907348633 h4.416 v4.416 H26.50000286102295 V26.500001907348633 h4.416 V23.552001907348632 H26.50000286102295 V19.136001907348632 z" id="svg_2"/></g></g></svg>