<svg xmlns="http://www.w3.org/2000/svg" xmlns:xlink="http://www.w3.org/1999/xlink" width="23" height="20" style=""><rect id="backgroundrect" width="100%" height="100%" x="0" y="0" fill="none" stroke="none"/><defs><style>.a{fill:#fff;}.b{filter:url(#a);}</style><filter id="a" x="0" y="0" width="40.63999938964844" height="38" filterUnits="userSpaceOnUse"><feOffset dy="3" input="SourceAlpha"/><feGaussianBlur stdDeviation="3" result="b"/><feFlood flood-opacity="0.302"/><feComposite operator="in" in2="b"/><feComposite in="SourceGraphic"/></filter></defs><g class="currentLayer" style=""><title>Layer 1</title><g class="b" id="svg_1"><path fill="#fff" class="a" d="M12.630000000000003,0.00003719329833984375 A10,10 0 1 1 4.26,15.43003719329834 l1.58,-1.25 A7.985,7.985 0 1 0 4.710000000000001,9.00003719329834 H7.469999999999999 L3.7300000000000004,12.73003719329834 L0,9.00003719329834 H2.6900000000000013 a10,10 0 0 1 9.94,-9 m2.96,8.24 a0.922,0.922 0 0 1 0.91,0.92 v4.61 a0.924,0.924 0 0 1 -0.92,0.92 H10.05 a0.924,0.924 0 0 1 -0.92,-0.92 V9.16003719329834 a0.922,0.922 0 0 1 0.91,-0.92 V7.23003719329834 a2.775,2.775 0 0 1 5.55,0 v1.01 M12.810000000000002,5.860037193298339 a1.372,1.372 0 0 0 -1.37,1.37 v1.01 h2.75 V7.23003719329834 A1.374,1.374 0 0 0 12.810000000000002,5.860037193298339 z" id="svg_2"/></g></g></svg>