<svg xmlns="http://www.w3.org/2000/svg" xmlns:xlink="http://www.w3.org/1999/xlink" width="140.219" height="167.131" viewBox="0 0 140.219 167.131"><defs><clipPath id="a"><rect width="140.219" height="167.131" fill="none"/></clipPath></defs><g transform="translate(0)" clip-path="url(#a)"><path d="M351.157,562.776a20.439,20.439,0,0,0-30.345-24.714,20.445,20.445,0,0,0-37.464-3.672,20.4,20.4,0,0,0-28.1,25.108c-.65-.063-1.307-.1-1.973-.1A20.422,20.422,0,0,0,238.5,593.94a10.674,10.674,0,1,0,9.813,5.707,20.093,20.093,0,0,0,13.891-1.445,20.421,20.421,0,0,0,34.971,6.943,20.421,20.421,0,0,0,37.666-4.966,20.421,20.421,0,0,0,16.312-37.4Z" transform="translate(-225.686 -521.227)" fill="#fff" stroke="#006828" stroke-miterlimit="10" stroke-width="5"/><g transform="translate(-225.686 -521.227)"><path d="M252.573,622.624h12.446a11.355,11.355,0,0,1,7.631,2.408q2.816,2.409,2.815,7t-2.815,7a11.349,11.349,0,0,1-7.631,2.408h-3.667v7.076h-8.779Zm10.668,12.262q3.371,0,3.371-2.853t-3.371-2.852h-1.889v5.7Z" fill="#002278"/><path d="M276.947,622.624h19.188V630H285.726v2.259H293.1v6.631h-7.371v2.26h10.409v7.372H276.947Z" fill="#002278"/><path d="M297.988,622.624h7.742l7.7,12.039V622.624h8.408v25.894H314.1L306.4,636.441v12.077h-8.408Z" fill="#002278"/><path d="M327.919,648.555a15.051,15.051,0,0,1-4.223-1.409v-7.63a17.573,17.573,0,0,0,4.39,1.778,17.331,17.331,0,0,0,4.278.593,4.093,4.093,0,0,0,1.593-.223.734.734,0,0,0,.482-.7,1.335,1.335,0,0,0-.741-1.13,31.555,31.555,0,0,0-3.149-1.537,14.067,14.067,0,0,1-5.168-3.464,6.961,6.961,0,0,1-1.611-4.649,7.035,7.035,0,0,1,1.315-4.2,8.677,8.677,0,0,1,3.705-2.872,13.607,13.607,0,0,1,5.463-1.037,22.178,22.178,0,0,1,4.483.408,16.3,16.3,0,0,1,3.741,1.259v7.372a13.5,13.5,0,0,0-6.594-1.852q-2.631,0-2.63,1.148a1.075,1.075,0,0,0,.612.926,16.358,16.358,0,0,0,2.2,1l1.37.556a18.45,18.45,0,0,1,4.038,2.2,6.287,6.287,0,0,1,2,2.482,8.964,8.964,0,0,1,.593,3.5,7.026,7.026,0,0,1-2.741,5.872q-2.742,2.13-8.261,2.13A26.248,26.248,0,0,1,327.919,648.555Z" fill="#002278"/><path d="M345.922,622.624h19.189V630H354.7v2.259h7.371v6.631H354.7v2.26h10.409v7.372H345.922Z" fill="#002278"/></g><g transform="translate(-225.686 -521.227)"><path d="M255.627,658.817h-5.009v-5.568h16.649v5.568h-5.009v13.992h-6.631Z" fill="#006828"/><path d="M268.247,653.249h9.4a8.578,8.578,0,0,1,5.764,1.818,6.577,6.577,0,0,1,2.127,5.289,7.381,7.381,0,0,1-.868,3.708,6.147,6.147,0,0,1-2.462,2.393l3.078,6.352H278.6l-2.574-5.345h-1.26v5.345h-6.519Zm8,9.262q2.545,0,2.545-2.155T276.25,658.2h-1.484v4.309Z" fill="#006828"/><path d="M291.178,671.941a9.7,9.7,0,0,1-3.819-3.595,10.777,10.777,0,0,1,0-10.62,9.679,9.679,0,0,1,3.819-3.61,11.974,11.974,0,0,1,10.8,0,9.7,9.7,0,0,1,3.82,3.61,10.777,10.777,0,0,1,0,10.62,9.715,9.715,0,0,1-3.82,3.595,11.966,11.966,0,0,1-10.8,0Zm8.185-6.016a4.16,4.16,0,1,0-2.771,1.063A3.84,3.84,0,0,0,299.363,665.925Z" fill="#006828"/><path d="M313.466,671.634a9.162,9.162,0,0,1-4-3.387,9.383,9.383,0,0,1-1.426-5.2,10.488,10.488,0,0,1,1.342-5.345,9.218,9.218,0,0,1,3.75-3.595,11.672,11.672,0,0,1,5.54-1.274,12.231,12.231,0,0,1,5.541,1.2,8.872,8.872,0,0,1,3.736,3.428,10.038,10.038,0,0,1,1.329,5.247,7.43,7.43,0,0,1-.657,2.868,6.746,6.746,0,0,1-1.581,2.393h2.854v4.841H319.455A14.3,14.3,0,0,1,313.466,671.634Zm7.975-5.709a4.16,4.16,0,1,0-2.771,1.063A3.836,3.836,0,0,0,321.441,665.925Z" fill="#006828"/><path d="M334.872,672.025a7.459,7.459,0,0,1-3.134-3.274,10.736,10.736,0,0,1-1.007-4.757V653.249h6.632V663.8a3.926,3.926,0,0,0,.671,2.491,2.561,2.561,0,0,0,2.127.839,2.518,2.518,0,0,0,2.112-.839,3.992,3.992,0,0,0,.658-2.491V653.249h6.659v10.745a10.749,10.749,0,0,1-1.006,4.757,7.465,7.465,0,0,1-3.134,3.274,12.219,12.219,0,0,1-10.578,0Z" fill="#006828"/><path d="M351.41,653.249H365.9v5.568h-7.863v1.707h5.568v5.009h-5.568v1.707H365.9v5.569H351.41Z" fill="#006828"/></g><g transform="translate(-225.686 -521.227)"><path d="M253.314,679.143H255.4l2.478,6.415,2.492-6.415h2.078l-3.6,9.022h-1.923Z" fill="#f9a000"/><path d="M270.636,679.143H276.9v1.638h-4.3v2.092h3.163v1.574H272.6v2.078h4.3v1.64h-6.261Z" fill="#f9a000"/><path d="M284.965,679.143h1.962v9.022h-1.962Zm.968-2.828h2.053l-1.15,2.272h-1.793Z" fill="#f9a000"/><path d="M297.472,687.784a4.113,4.113,0,0,1-1.717-1.633,5.437,5.437,0,0,1,0-4.989,4.1,4.1,0,0,1,1.717-1.639,5.5,5.5,0,0,1,2.556-.575,5.421,5.421,0,0,1,3.124.853v1.858a3.53,3.53,0,0,0-1.3-.69,5.921,5.921,0,0,0-1.659-.213,3.1,3.1,0,0,0-2.227.781,3.169,3.169,0,0,0,.007,4.26,3.1,3.1,0,0,0,2.22.78,5.789,5.789,0,0,0,1.691-.225,4.122,4.122,0,0,0,1.368-.73v1.858a5.313,5.313,0,0,1-3.227.878A5.482,5.482,0,0,1,297.472,687.784Z" fill="#f9a000"/><path d="M312.394,687.319a3.844,3.844,0,0,1-1.007-2.794v-5.382h1.962v5.408a1.968,1.968,0,0,0,.543,1.5,2.06,2.06,0,0,0,1.485.516,2.017,2.017,0,0,0,1.464-.516,1.984,1.984,0,0,0,.536-1.5v-5.408h1.961v5.382a3.874,3.874,0,0,1-.993,2.794,3.919,3.919,0,0,1-2.968,1.039A3.966,3.966,0,0,1,312.394,687.319Z" fill="#f9a000"/><path d="M327.729,679.143h1.962v7.382h4.131v1.64h-6.093Z" fill="#f9a000"/><path d="M343.161,687.765a4.406,4.406,0,0,1-1.736-1.659,5.061,5.061,0,0,1,0-4.9,4.389,4.389,0,0,1,1.736-1.666,5.1,5.1,0,0,1,2.459-.594,5.031,5.031,0,0,1,2.446.594,4.417,4.417,0,0,1,1.724,1.666,5.068,5.068,0,0,1,0,4.9,4.435,4.435,0,0,1-1.724,1.659,5.03,5.03,0,0,1-2.446.593A5.1,5.1,0,0,1,343.161,687.765Zm3.873-1.569a2.6,2.6,0,0,0,1.012-1.007,3.306,3.306,0,0,0,.007-3.045,2.566,2.566,0,0,0-1.007-1.007,3.06,3.06,0,0,0-2.865,0,2.607,2.607,0,0,0-1.013,1.007,3.286,3.286,0,0,0,0,3.045,2.6,2.6,0,0,0,1.019,1.007,2.912,2.912,0,0,0,1.433.356A2.85,2.85,0,0,0,347.034,686.2Z" fill="#f9a000"/><path d="M359.354,688.2a5.159,5.159,0,0,1-1.329-.413v-1.73a6.441,6.441,0,0,0,1.42.5,6.258,6.258,0,0,0,1.407.168,2.058,2.058,0,0,0,1.136-.258.821.821,0,0,0,.387-.723.853.853,0,0,0-.194-.567,1.742,1.742,0,0,0-.561-.42q-.367-.187-1.129-.5a4.914,4.914,0,0,1-1.833-1.156,2.444,2.444,0,0,1-.155-2.929,2.662,2.662,0,0,1,1.162-.911,4.353,4.353,0,0,1,1.729-.323,7.011,7.011,0,0,1,1.42.13,5.707,5.707,0,0,1,1.213.4v1.678a5.037,5.037,0,0,0-2.272-.568,2.172,2.172,0,0,0-1.135.252.792.792,0,0,0-.413.716.807.807,0,0,0,.193.555,1.667,1.667,0,0,0,.542.387q.348.168,1.136.491a8.247,8.247,0,0,1,1.433.742,2.262,2.262,0,0,1,.761.839,2.618,2.618,0,0,1,.246,1.194,2.278,2.278,0,0,1-.885,1.911,4.269,4.269,0,0,1-2.639.683A8.773,8.773,0,0,1,359.354,688.2Z" fill="#f9a000"/></g><g transform="translate(-225.686 -521.227)"><circle cx="25.094" cy="25.094" r="25.094" transform="translate(275.081 543.679)" fill="#002278"/><path d="M290.187,565.817l-4.218-.422s-2.029,9.636,4.109,14.326a15.857,15.857,0,0,0,12.582,3.087l1.887,3.612,4.159-9.1-9.642-1.594,1.8,3.756a9.2,9.2,0,0,1-8.157-2.431A9.348,9.348,0,0,1,290.187,565.817Z" fill="#fff"/><path d="M310.164,571.729l4.218.422s2.029-9.636-4.109-14.326a15.854,15.854,0,0,0-12.582-3.086l-1.887-3.613-4.159,9.1,9.642,1.594-1.8-3.755a9.192,9.192,0,0,1,8.157,2.431A9.346,9.346,0,0,1,310.164,571.729Z" fill="#fff"/></g><circle cx="3.659" cy="3.659" r="3.659" transform="translate(14.169 109.128)" fill="none" stroke="#006828" stroke-miterlimit="10" stroke-width="5"/><circle cx="6.843" cy="6.843" r="6.843" transform="translate(3.335 94.746)" fill="none" stroke="#006828" stroke-miterlimit="10" stroke-width="5"/></g></svg>