<svg xmlns="http://www.w3.org/2000/svg" width="113.987" height="148.753" viewBox="0 0 113.987 148.753"><defs><style>.a{fill:#fff;stroke:#002278;stroke-width:2px;}.b{fill:#002278;}.c{fill:#f9a000;}.d{stroke:none;}.e{fill:none;}</style></defs><g transform="matrix(0.985, 0.174, -0.174, 0.985, 56.813, -382.101)"><g transform="translate(-51 -16)"><g class="a" transform="translate(85 398)"><rect class="d" width="74" height="138" rx="5"/><rect class="e" x="1" y="1" width="72" height="136" rx="4"/></g><g class="a" transform="translate(90 411)"><rect class="d" width="64" height="106" rx="5"/><rect class="e" x="1" y="1" width="62" height="104" rx="4"/></g><circle class="b" cx="5" cy="5" r="5" transform="translate(117 520)"/><rect class="b" width="24" height="4" rx="2" transform="translate(110 403)"/></g><g transform="translate(-287.371 361.768) rotate(-50)"><g transform="translate(160 296)"><path class="c" d="M1014.14,217.611c.672-.073-12.524-47.72-54.854-51.488C956.075,165.287,1006.947,161.433,1014.14,217.611Z" transform="translate(-950.567 -153.129)"/><path class="c" d="M948.127,332.827a34.091,34.091,0,0,0-17.72-17.144s6.727,1.28,23.5-12.352c0,0-20.56,12.815-28.483,11.379C925.425,314.712,942.5,320.581,948.127,332.827Z" transform="translate(-925.425 -303.332)"/></g></g><path class="c" d="M308.838,353.742l-.394-.992a41.71,41.71,0,0,0-8.732-13.588c-2.767-3.093-4.953-5.536-4.363-9.585a10.179,10.179,0,0,1,7.514-8.457l.138-17.8c0-1.834,1.057-5.406,5.055-5.714,4.082-.319,5.513,3.7,5.7,5.869l.006.124.054,6.945a4.821,4.821,0,0,1,2.327-.592,3.785,3.785,0,0,1,2.812,1.273,7.821,7.821,0,0,1,1.565,3.118c.088-.091.179-.178.273-.26a4.026,4.026,0,0,1,3.64-.889,4.1,4.1,0,0,1,2.7,2.023,7.258,7.258,0,0,1,.818,2.537,2.628,2.628,0,0,1,1.576-.175,3.715,3.715,0,0,1,2.615,2.044c3.51,6.68-5.016,30.473-6.095,32.962l-.4.919Zm-6-29.334a6.893,6.893,0,0,0-4.426,5.616c-.366,2.51.841,3.983,3.607,7.074a45.175,45.175,0,0,1,8.9,13.518l12.668-.18c2.426-6.184,8.105-25.021,5.818-29.373a.952.952,0,0,0-.317-.388,6.688,6.688,0,0,0-1.174,2.405,50.865,50.865,0,0,1-1.805,8.33l-3.014-.654a47.4,47.4,0,0,1,1.789-8.387c.262-2.365.22-4.49-.424-5.6a.994.994,0,0,0-.684-.553.946.946,0,0,0-.94.2c-.72.628-1.189,2.121-1.465,3.926a59.778,59.778,0,0,1-.218,7.721l-3.084-.023a38.344,38.344,0,0,1,.176-7.789c-.151-3.111-.616-5.9-1.565-6.937a.634.634,0,0,0-.507-.268,1.668,1.668,0,0,0-1.369.647,5.261,5.261,0,0,0-.938,2.117l.08,10.316-3.074.274c-.14-.816-1.044-6.448-.1-10.876L310.67,303.7c-.049-.417-.459-3.147-2.377-3.006-2.135.164-2.2,2.387-2.2,2.639l-.134,17.318.053-.005-.128,9.7-3.1-.032Z" transform="matrix(0.985, -0.174, 0.174, 0.985, -289.061, 197.893)"/></g></svg>